# xmcd
#
# Track frame offsets: 
#        151
#        12004
#        22501
#        34556
#        47643
#        59653
#        70100
#        81676
#        95099
#        104421
#        113381
#        128219
#        139773
#        150820
#        165900
#        176660
#        186795
#        197675
#        210045
#        223397
#        233268
#        244623
#        255556
#        264445
#        274100
#        285959
#        296168
#        307843
#        319678
#
# Disc length: 4437 seconds
#
# Revision: 0
# Processed by: cddbd v1.5PL3 Copyright (c) Steve Scherf et al.
# Submitted via: ExactAudioCopy v0.95a4
#
DISCID=7f11531d
DTITLE=Frankie Laine - Frankie Laine - On The Trail
DYEAR=1990
DGENRE=Country
TTITLE0=High Noon
TTITLE1=Gunfight At O. K. Corral
TTITLE2=Wanted Man
TTITLE3=Bowie Knife
TTITLE4=Mule Train
TTITLE5=The Hanging Tree
TTITLE6=City Boy
TTITLE7=Cry Of The Wild Goose
TTITLE8=Rawhide
TTITLE9=Gunslinger
TTITLE10=On The Trail
TTITLE11=North To Alaska
TTITLE12=Call Of The Wild
TTITLE13=Ghost Riders In The Sky
TTITLE14=Praire Bell
TTITLE15=Lonley Man
TTITLE16=Camptown Races
TTITLE17=Luck Be A Lady
TTITLE18=Get Rich Quick
TTITLE19=Horses And Woman
TTITLE20=Moonlight Gambler
TTITLE21=Ace In The Hole
TTITLE22=The Man Who Broke The Bank At Monte Carlo
TTITLE23=Gamblin Woman
TTITLE24=Rock Of Gibralter
TTITLE25=You Know How It Is
TTITLE26=Humming Bird
TTITLE27=Haw-eye
TTITLE28=Coolwater
EXTD=
EXTT0=
EXTT1=
EXTT2=
EXTT3=
EXTT4=
EXTT5=
EXTT6=
EXTT7=
EXTT8=
EXTT9=
EXTT10=
EXTT11=
EXTT12=
EXTT13=
EXTT14=
EXTT15=
EXTT16=
EXTT17=
EXTT18=
EXTT19=
EXTT20=
EXTT21=
EXTT22=
EXTT23=
EXTT24=
EXTT25=
EXTT26=
EXTT27=
EXTT28=
PLAYORDER=
